<svg xmlns="http://www.w3.org/2000/svg" width="64" height="96" viewBox="0 0 64 96">
  <ellipse cx="32" cy="90" rx="23" ry="5" fill="#172228" opacity=".42"/>
  <path d="M19 39h26l7 45H12z" fill="#234f68" stroke="#112d3b" stroke-width="3"/>
  <path d="M22 42h20l-3 34H25z" fill="#d08b3f"/>
  <path d="M17 48 7 69l8 5 11-20zm30 0 10 21-8 5-11-20z" fill="#ddb58b" stroke="#593f34" stroke-width="2"/>
  <circle cx="32" cy="27" r="16" fill="#ddb58b" stroke="#593f34" stroke-width="3"/>
  <path d="M17 27c1-17 10-22 16-22s15 6 15 22l-9-7-9 5-7-5z" fill="#28333a"/>
  <path d="M25 31h3m8 0h3" stroke="#2d2522" stroke-width="3" stroke-linecap="round"/>
  <path d="M26 84v8m12-8v8" stroke="#302c2c" stroke-width="7" stroke-linecap="round"/>
</svg>
